<svg xmlns="http://www.w3.org/2000/svg" viewBox="0 0 512 512" width="512" height="512"><path d="M502.747 301.031a9.252 9.252 0 0 0-9.253 9.253v133.86H18.506V272.147c61.518 37.879 131.385 60.51 203.566 65.87v35.187c0 15.306 12.453 27.759 27.759 27.759h24.675c15.306 0 27.759-12.453 27.759-27.759v-86.361c0-15.306-12.453-27.759-27.759-27.759h-24.675c-15.306 0-27.759 12.453-27.759 27.759v32.61c-72.562-5.62-142.647-29.423-203.566-69.203v-96.033h474.988v96.034c-47.067 30.756-98.826 51.774-153.927 62.499-5.016.977-8.292 5.836-7.316 10.851.977 5.015 5.836 8.299 10.851 7.315 59.137-11.51 114.579-34.389 164.791-68.001a9.252 9.252 0 0 0 4.106-7.689V144.964a9.252 9.252 0 0 0-9.253-9.253H363.952V77.108c0-15.306-12.453-27.759-27.759-27.759H175.807c-15.306 0-27.759 12.453-27.759 27.759v58.602H9.253A9.252 9.252 0 0 0 0 144.963v308.434a9.252 9.252 0 0 0 9.253 9.253h493.494a9.252 9.252 0 0 0 9.253-9.253V310.284a9.252 9.252 0 0 0-9.253-9.253zm-262.169-14.188c0-5.103 4.15-9.253 9.253-9.253h24.675c5.103 0 9.253 4.15 9.253 9.253v33.928h-43.181v-33.928zm0 52.434h43.181v33.928c0 5.103-4.15 9.253-9.253 9.253h-24.675c-5.103 0-9.253-4.15-9.253-9.253v-33.928zm67.856-203.566H203.566v-30.843h104.867v30.843zm-141.88-58.603c0-5.103 4.15-9.253 9.253-9.253h160.385c5.103 0 9.253 4.15 9.253 9.253v58.602H326.94V95.614a9.252 9.252 0 0 0-9.253-9.253H194.313a9.252 9.252 0 0 0-9.253 9.253v40.096h-18.506V77.108z" data-original="#000000" class="active-path" data-old_color="#000000"/></svg>